<svg width="36" height="37" viewBox="0 0 36 37" fill="none" xmlns="http://www.w3.org/2000/svg">
<rect x="0.5" y="0.982666" width="34.9985" height="34.9985" rx="17.4993" fill="url(#paint0_linear_167_3612)"/>
<rect x="0.5" y="0.982666" width="34.9985" height="34.9985" rx="17.4993" stroke="black"/>
<rect x="0.5" y="0.982666" width="34.9985" height="34.9985" rx="17.4993" stroke="black" stroke-opacity="0.2"/>
<path d="M10.1884 17.0848C10.4201 17.5601 10.9934 18.4995 10.9934 18.4995L17.6215 7.9823L11.1527 12.3181C10.7672 12.5649 10.451 12.899 10.2319 13.2909C9.93727 13.8821 9.78073 14.5279 9.77323 15.1832C9.76573 15.8385 9.90744 16.4875 10.1884 17.0848Z" fill="#10151A"/>
<path d="M7.5621 20.5479C7.63514 21.5539 7.93127 22.5333 8.43065 23.4206C8.93004 24.3079 9.62116 25.0824 10.4577 25.6925L17.6128 30.4814C17.6128 30.4814 13.1362 24.2889 9.36029 18.127C8.97802 17.476 8.72103 16.7642 8.60164 16.0258C8.54878 15.6914 8.54878 15.3513 8.60164 15.0169C8.50319 15.192 8.31207 15.5506 8.31207 15.5506C7.92921 16.3 7.66846 17.1015 7.53894 17.9269C7.46438 18.7994 7.47214 19.6767 7.5621 20.5479Z" fill="#10151A"/>
<path d="M25.8162 21.3789C25.5845 20.9037 25.0112 19.9642 25.0112 19.9642L18.3831 30.4814L24.852 26.1484C25.2374 25.9015 25.5536 25.5674 25.7727 25.1755C26.0678 24.584 26.2246 23.9377 26.2321 23.2818C26.2396 22.6261 26.0976 21.9766 25.8162 21.3789Z" fill="#10151A"/>
<path d="M28.4425 17.9158C28.3695 16.9098 28.0733 15.9304 27.574 15.0431C27.0746 14.1558 26.3835 13.3812 25.5469 12.7712L18.3918 7.9823C18.3918 7.9823 22.8655 14.1748 26.6443 20.3366C27.0256 20.9878 27.2816 21.6996 27.4001 22.4379C27.4529 22.7722 27.4529 23.1124 27.4001 23.4468C27.4985 23.2716 27.6896 22.9131 27.6896 22.9131C28.0725 22.1636 28.3333 21.3622 28.4628 20.5368C28.5383 19.6643 28.5315 18.7871 28.4425 17.9158Z" fill="#10151A"/>
<path d="M10.2319 13.2909C10.451 12.899 10.7672 12.5649 11.1527 12.3181L17.6215 7.9823L10.9934 18.5022C10.9934 18.5022 10.4143 17.5628 10.1884 17.0875C9.90699 16.4899 9.76504 15.8404 9.77254 15.1846C9.78004 14.5288 9.93683 13.8825 10.2319 13.2909ZM7.5621 20.5479C7.63514 21.5539 7.93127 22.5333 8.43065 23.4206C8.93004 24.3079 9.62116 25.0824 10.4577 25.6925L17.6128 30.4814C17.6128 30.4814 13.1362 24.2889 9.36029 18.127C8.97802 17.476 8.72103 16.7642 8.60164 16.0258C8.54878 15.6914 8.54878 15.3513 8.60164 15.0169C8.50319 15.192 8.31207 15.5506 8.31207 15.5506C7.92921 16.3 7.66846 17.1015 7.53894 17.9269C7.46438 18.7994 7.47214 19.6767 7.5621 20.5479ZM25.8046 21.3817C25.5729 20.9064 24.9996 19.967 24.9996 19.967L18.3831 30.4814L24.852 26.1484C25.2374 25.9015 25.5536 25.5674 25.7727 25.1755C26.0678 24.584 26.2246 23.9377 26.2321 23.2818C26.2396 22.6261 26.0976 21.9766 25.8162 21.3789L25.8046 21.3817ZM28.4309 17.9186C28.3579 16.9126 28.0617 15.9331 27.5624 15.0459C27.063 14.1586 26.3719 13.384 25.5353 12.7739L18.3918 7.9823C18.3918 7.9823 22.8655 14.1748 26.6443 20.3366C27.0256 20.9878 27.2816 21.6996 27.4001 22.4379C27.4529 22.7722 27.4529 23.1124 27.4001 23.4468C27.4985 23.2716 27.6896 22.9131 27.6896 22.9131C28.0725 22.1636 28.3333 21.3622 28.4628 20.5368C28.5383 19.6643 28.5315 18.7871 28.4425 17.9158L28.4309 17.9186Z" fill="#10151A"/>
<defs>
<linearGradient id="paint0_linear_167_3612" x1="17.9993" y1="0.482666" x2="17.9993" y2="36.4812" gradientUnits="userSpaceOnUse">
<stop stop-color="#A09FFE"/>
<stop offset="1" stop-color="#4ACEF7"/>
</linearGradient>
</defs>
</svg>
