<svg width="44" height="51" viewBox="0 0 44 51" fill="none" xmlns="http://www.w3.org/2000/svg">
<g id="Group 5597">
<path id="Star 20" d="M10.7727 1.31445L11.2721 6.1251C11.5167 8.48106 13.3788 10.3432 15.7348 10.5878L20.5455 11.0872L15.7348 11.5866C13.3788 11.8311 11.5167 13.6933 11.2721 16.0493L10.7727 20.8599L10.2733 16.0493C10.0288 13.6933 8.16661 11.8311 5.81064 11.5866L1 11.0872L5.81065 10.5878C8.16661 10.3432 10.0288 8.48106 10.2733 6.1251L10.7727 1.31445Z" fill="#77E6FF" stroke="#77E6FF" stroke-width="1.31747" stroke-linejoin="round"/>
<path id="Union" fill-rule="evenodd" clip-rule="evenodd" d="M39.022 16.6863C39.0046 16.5192 38.8638 16.3923 38.6958 16.3923C38.5278 16.3923 38.387 16.5192 38.3697 16.6863L38.1105 19.1831C38.0048 20.2015 37.1998 21.0064 36.1814 21.1121L33.6847 21.3713C33.5176 21.3887 33.3906 21.5295 33.3906 21.6975C33.3906 21.8655 33.5176 22.0063 33.6847 22.0236L36.1814 22.2828C37.1998 22.3885 38.0048 23.1935 38.1105 24.2119L38.3697 26.7086C38.387 26.8757 38.5278 27.0027 38.6958 27.0027C38.8638 27.0027 39.0046 26.8757 39.022 26.7086L39.2811 24.2119C39.3869 23.1935 40.1918 22.3885 41.2102 22.2828L43.707 22.0236C43.8741 22.0063 44.001 21.8655 44.001 21.6975C44.001 21.5295 43.8741 21.3887 43.707 21.3713L41.2102 21.1121C40.1918 21.0064 39.3869 20.2015 39.2811 19.1831L39.022 16.6863Z" fill="#C8D316"/>
<path id="Union_2" fill-rule="evenodd" clip-rule="evenodd" d="M28.4087 40.1408C28.3913 39.9738 28.2505 39.8468 28.0825 39.8468C27.9146 39.8468 27.7737 39.9738 27.7564 40.1408L27.4972 42.6376C27.3915 43.656 26.5865 44.461 25.5681 44.5667L23.0714 44.8259C22.9043 44.8432 22.7773 44.984 22.7773 45.152C22.7773 45.32 22.9043 45.4608 23.0714 45.4781L25.5681 45.7373C26.5865 45.843 27.3915 46.648 27.4972 47.6664L27.7564 50.1632C27.7737 50.3302 27.9146 50.4572 28.0825 50.4572C28.2505 50.4572 28.3913 50.3302 28.4087 50.1632L28.6679 47.6664C28.7736 46.648 29.5785 45.843 30.5969 45.7373L33.0937 45.4781C33.2608 45.4608 33.3877 45.32 33.3877 45.152C33.3877 44.984 33.2608 44.8432 33.0937 44.8259L30.5969 44.5667C29.5785 44.461 28.7736 43.656 28.6679 42.6376L28.4087 40.1408Z" fill="#F87388"/>
</g>
</svg>
