<svg width="36" height="37" viewBox="0 0 36 37" fill="none" xmlns="http://www.w3.org/2000/svg">
<rect x="9.64062" y="11.4102" width="23.7858" height="14.1429" fill="#10151A"/>
<path d="M18.0007 0.481201C8.07683 0.481201 0 8.52672 0 18.4819C0 28.4057 8.04552 36.4826 18.0007 36.4826C27.9558 36.4826 36.0014 28.437 36.0014 18.4819C36.0014 8.55803 27.9245 0.481201 18.0007 0.481201ZM31.1803 19.4524H22.8217C22.2582 22.2072 19.5973 23.9917 16.8424 23.4282C14.0875 22.8647 12.3031 20.2037 12.8666 17.4488C13.4301 14.6939 16.091 12.9095 18.8459 13.473C20.9434 13.88 22.54 15.5705 22.8843 17.6992H31.1803C31.6812 17.6992 32.0569 18.1062 32.0569 18.5758C32.0569 19.0767 31.6499 19.4524 31.1803 19.4524Z" fill="#008C73"/>
</svg>
