<svg width="36" height="37" viewBox="0 0 36 37" fill="none" xmlns="http://www.w3.org/2000/svg">
<path d="M36.0014 18.4819C36.0014 28.4228 27.9416 36.4826 18.0007 36.4826C8.05974 36.4826 0 28.4228 0 18.4819C0 8.54095 8.05974 0.481201 18.0007 0.481201C27.9437 0.481201 36.0014 8.54095 36.0014 18.4819Z" fill="url(#paint0_linear_167_3613)"/>
<path d="M8.88117 19.0866L8.95885 18.9646L13.6416 11.6391C13.71 11.5318 13.8709 11.5429 13.9226 11.6594C14.705 13.4127 15.38 15.5931 15.0637 16.9506C14.9287 17.5091 14.5589 18.2655 14.1427 18.9646C14.0891 19.0663 14.0299 19.1662 13.967 19.2624C13.9374 19.3067 13.8875 19.3326 13.8339 19.3326H9.01802C8.88857 19.3326 8.81277 19.1921 8.88117 19.0866Z" fill="#10151A"/>
<path d="M29.7553 20.4478V21.6074C29.7553 21.674 29.7147 21.7332 29.6555 21.759C29.293 21.9144 28.052 22.484 27.5361 23.2016C26.2193 25.0343 25.2132 27.6549 22.9643 27.6549H13.5823C10.2571 27.6549 7.5625 24.9511 7.5625 21.6148V21.5075C7.5625 21.4188 7.63462 21.3466 7.72343 21.3466H12.9535C13.0571 21.3466 13.1329 21.4428 13.1237 21.5445C13.0867 21.8848 13.1496 22.2325 13.3104 22.5488C13.6212 23.1794 14.2648 23.5733 14.9601 23.5733H17.5493V21.5519H14.9897C14.8584 21.5519 14.7807 21.4003 14.8566 21.293C14.8843 21.2505 14.9157 21.2061 14.949 21.1561C15.1913 20.8122 15.5371 20.2777 15.8811 19.6692C16.116 19.2587 16.3435 18.8203 16.5266 18.3802C16.5636 18.3007 16.5932 18.2193 16.6227 18.1398C16.6727 17.9992 16.7244 17.8679 16.7614 17.7366C16.7984 17.6257 16.828 17.5091 16.8576 17.4C16.9445 17.0264 16.9815 16.6307 16.9815 16.2201C16.9815 16.0592 16.9741 15.8909 16.9593 15.73C16.9519 15.5543 16.9297 15.3786 16.9075 15.2029C16.8927 15.0476 16.865 14.8941 16.8354 14.7332C16.7984 14.4983 16.7466 14.2653 16.6874 14.0304L16.6671 13.9416C16.6227 13.7807 16.5858 13.6272 16.534 13.4663C16.3879 12.9614 16.2195 12.4695 16.042 12.009C15.9773 11.8259 15.9033 11.6502 15.8293 11.4745C15.7202 11.21 15.6092 10.9696 15.5076 10.7422C15.4558 10.6386 15.4114 10.5443 15.367 10.4481C15.3171 10.339 15.2653 10.2299 15.2135 10.1263C15.1765 10.0468 15.1339 9.9728 15.1044 9.89884L14.7881 9.31442C14.7437 9.23489 14.8177 9.14057 14.9046 9.16461L16.8835 9.70095H16.8891C16.8927 9.70095 16.8946 9.70279 16.8965 9.70279L17.1572 9.77492L17.4439 9.85628L17.5493 9.88588V8.70968C17.5493 8.14189 18.0043 7.6814 18.5665 7.6814C18.8476 7.6814 19.1028 7.79604 19.2859 7.98285C19.4689 8.16965 19.5836 8.42486 19.5836 8.70968V10.4555L19.7944 10.5147C19.8111 10.5202 19.8278 10.5276 19.8426 10.5387C19.8943 10.5775 19.9683 10.6349 20.0626 10.7052C20.1366 10.7644 20.2161 10.8365 20.3123 10.9104C20.5028 11.064 20.7302 11.2619 20.9799 11.4893C21.0465 11.5467 21.1113 11.6058 21.1704 11.665C21.4922 11.9646 21.8528 12.316 22.1969 12.7044C22.293 12.8135 22.3873 12.9244 22.4835 13.041C22.5797 13.1593 22.6814 13.2758 22.7702 13.3924C22.8867 13.5477 23.0124 13.7086 23.1215 13.8769C23.1733 13.9564 23.2325 14.0378 23.2825 14.1173C23.423 14.33 23.5469 14.5501 23.6653 14.7701C23.7152 14.8719 23.767 14.9828 23.8114 15.092C23.9427 15.386 24.0462 15.6856 24.1128 15.9852C24.1332 16.05 24.148 16.1202 24.1554 16.1831V16.1979C24.1775 16.2867 24.1849 16.381 24.1923 16.4772C24.2219 16.7841 24.2071 17.0912 24.1406 17.4C24.1128 17.5313 24.0758 17.6552 24.0314 17.7865C23.987 17.9123 23.9427 18.0436 23.8854 18.1675C23.7744 18.4246 23.6431 18.6817 23.4877 18.9221C23.4378 19.0108 23.3786 19.1051 23.3194 19.1939C23.2547 19.2882 23.1881 19.377 23.1289 19.464C23.0476 19.5749 22.9606 19.6914 22.8719 19.795C22.7924 19.9041 22.7109 20.0132 22.6222 20.1094C22.4983 20.2555 22.3799 20.3942 22.256 20.5274C22.1821 20.6143 22.1025 20.703 22.0211 20.7826C21.9416 20.8713 21.8602 20.9509 21.7863 21.0248C21.6624 21.1487 21.5588 21.2449 21.4719 21.3244L21.2684 21.5112C21.2389 21.5371 21.2 21.5519 21.1593 21.5519H19.5836V23.5733H21.5662C22.01 23.5733 22.4317 23.4161 22.772 23.1276C22.8885 23.0259 23.3971 22.5857 23.9982 21.9218C24.0185 21.8996 24.0444 21.883 24.074 21.8756L29.55 20.2925C29.6518 20.2629 29.7553 20.3406 29.7553 20.4478Z" fill="#10151A"/>
<defs>
<linearGradient id="paint0_linear_167_3613" x1="18.0007" y1="0.481201" x2="18.0007" y2="36.4826" gradientUnits="userSpaceOnUse">
<stop stop-color="#3E99F3"/>
<stop offset="1" stop-color="#2081E2"/>
</linearGradient>
</defs>
</svg>
