<svg width="50" height="39" viewBox="0 0 50 39" fill="none" xmlns="http://www.w3.org/2000/svg">
<g id="Group 5685">
<path id="Union" fill-rule="evenodd" clip-rule="evenodd" d="M39.7828 17.1464C39.7472 16.8053 39.4583 16.5461 39.1135 16.5461C38.7688 16.5461 38.4798 16.8053 38.4443 17.1464L37.9124 22.2437C37.6954 24.3229 36.0436 25.9663 33.9536 26.1821L28.83 26.7112C28.4871 26.7466 28.2266 27.0341 28.2266 27.3771C28.2266 27.72 28.4871 28.0075 28.83 28.0429L33.9536 28.572C36.0435 28.7879 37.6954 30.4312 37.9124 32.5104L38.4443 37.6077C38.4798 37.9488 38.7688 38.208 39.1135 38.208C39.4583 38.208 39.7472 37.9488 39.7828 37.6077L40.3147 32.5104C40.5317 30.4313 42.1835 28.7879 44.2734 28.572L49.3971 28.0429C49.74 28.0075 50.0005 27.72 50.0005 27.3771C50.0005 27.0341 49.74 26.7466 49.3971 26.7112L44.2734 26.1821C42.1835 25.9663 40.5317 24.3229 40.3147 22.2437L39.7828 17.1464Z" fill="#F87388"/>
<path id="Union_2" fill-rule="evenodd" clip-rule="evenodd" d="M8.70967 1.24676C8.68284 0.988343 8.46506 0.791992 8.20525 0.791992C7.94544 0.791992 7.72765 0.988342 7.70082 1.24676L7.29996 5.10835C7.13645 6.68346 5.89147 7.92844 4.31636 8.09195L0.454771 8.49281C0.19635 8.51964 0 8.73743 0 8.99724C0 9.25705 0.19635 9.47484 0.454771 9.50166L4.31636 9.90252C5.89147 10.066 7.13645 11.311 7.29996 12.8861L7.70082 16.7477C7.72765 17.0061 7.94544 17.2025 8.20525 17.2025C8.46506 17.2025 8.68284 17.0061 8.70967 16.7477L9.11053 12.8861C9.27404 11.311 10.519 10.066 12.0941 9.90252L15.9557 9.50166C16.2141 9.47484 16.4105 9.25705 16.4105 8.99724C16.4105 8.73743 16.2141 8.51964 15.9557 8.49281L12.0941 8.09195C10.519 7.92844 9.27404 6.68346 9.11053 5.10835L8.70967 1.24676Z" fill="#C8D316"/>
</g>
</svg>
