<svg width="53" height="42" viewBox="0 0 53 42" fill="none" xmlns="http://www.w3.org/2000/svg">
<g id="Group 5599">
<path id="Union" fill-rule="evenodd" clip-rule="evenodd" d="M7.35641 27.7925C7.33375 27.5743 7.1498 27.4084 6.93036 27.4084C6.71092 27.4084 6.52697 27.5743 6.50431 27.7925L6.16573 31.0541C6.02763 32.3845 4.97609 33.436 3.64571 33.5742L0.384112 33.9127C0.165843 33.9354 0 34.1193 0 34.3388C0 34.5582 0.165843 34.7422 0.384112 34.7648L3.64571 35.1034C4.97609 35.2415 6.02763 36.2931 6.16573 37.6234L6.50431 40.885C6.52697 41.1033 6.71092 41.2691 6.93036 41.2691C7.1498 41.2691 7.33375 41.1033 7.35641 40.885L7.69499 37.6234C7.83309 36.2931 8.88464 35.2415 10.215 35.1034L13.4766 34.7648C13.6949 34.7422 13.8607 34.5582 13.8607 34.3388C13.8607 34.1193 13.6949 33.9354 13.4766 33.9127L10.215 33.5742C8.88464 33.436 7.83309 32.3845 7.69499 31.0541L7.35641 27.7925Z" fill="#C8D316"/>
<path id="Union_2" fill-rule="evenodd" clip-rule="evenodd" d="M38.843 1.3383C38.7937 0.86324 38.3934 0.502289 37.9158 0.502289C37.4382 0.502289 37.0378 0.86324 36.9885 1.3383L36.2516 8.43706C35.951 11.3326 33.6623 13.6212 30.7668 13.9218L23.668 14.6587C23.193 14.708 22.832 15.1084 22.832 15.586C22.832 16.0636 23.193 16.464 23.668 16.5133L30.7668 17.2502C33.6623 17.5508 35.951 19.8394 36.2516 22.735L36.9885 29.8337C37.0378 30.3088 37.4382 30.6697 37.9158 30.6697C38.3934 30.6697 38.7937 30.3088 38.843 29.8337L39.58 22.735C39.8805 19.8394 42.1692 17.5508 45.0647 17.2502L52.1635 16.5133C52.6385 16.464 52.9995 16.0636 52.9995 15.586C52.9995 15.1084 52.6385 14.708 52.1635 14.6587L45.0647 13.9218C42.1692 13.6212 39.8805 11.3326 39.58 8.43706L38.843 1.3383Z" fill="#4BE1F4"/>
</g>
</svg>
