<svg width="44" height="40" viewBox="0 0 44 40" fill="none" xmlns="http://www.w3.org/2000/svg">
<g id="Group 5596">
<path id="Union" fill-rule="evenodd" clip-rule="evenodd" d="M13.399 1.13376C13.3577 0.736208 13.0226 0.434143 12.623 0.434143C12.2233 0.434143 11.8882 0.736208 11.8469 1.13376L11.2303 7.07443C10.9787 9.49758 9.06344 11.4129 6.64029 11.6644L0.69962 12.2811C0.302065 12.3224 0 12.6574 0 13.0571C0 13.4568 0.302065 13.7918 0.69962 13.8331L6.64028 14.4498C9.06344 14.7013 10.9787 16.6166 11.2303 19.0398L11.8469 24.9804C11.8882 25.378 12.2233 25.68 12.623 25.68C13.0226 25.68 13.3577 25.378 13.399 24.9804L14.0156 19.0398C14.2672 16.6166 16.1825 14.7013 18.6056 14.4498L24.5463 13.8331C24.9438 13.7918 25.2459 13.4568 25.2459 13.0571C25.2459 12.6574 24.9438 12.3224 24.5463 12.2811L18.6056 11.6644C16.1825 11.4129 14.2672 9.49758 14.0156 7.07443L13.399 1.13376Z" fill="#4BE1F4"/>
<path id="Union_2" fill-rule="evenodd" clip-rule="evenodd" d="M38.2424 27.5858C38.2224 27.3927 38.0597 27.2459 37.8655 27.2459C37.6714 27.2459 37.5087 27.3927 37.4886 27.5858L37.1891 30.4712C37.0669 31.6482 36.1366 32.5785 34.9597 32.7006L32.0742 33.0002C31.8811 33.0202 31.7344 33.183 31.7344 33.3771C31.7344 33.5712 31.8811 33.734 32.0742 33.754L34.9597 34.0535C36.1366 34.1757 37.0669 35.106 37.1891 36.283L37.4886 39.1684C37.5087 39.3615 37.6714 39.5082 37.8655 39.5082C38.0597 39.5082 38.2224 39.3615 38.2424 39.1684L38.542 36.283C38.6642 35.106 39.5944 34.1757 40.7714 34.0535L43.6569 33.754C43.85 33.734 43.9967 33.5712 43.9967 33.3771C43.9967 33.183 43.85 33.0202 43.6569 33.0002L40.7714 32.7006C39.5944 32.5785 38.6642 31.6482 38.542 30.4712L38.2424 27.5858Z" fill="#FFC803"/>
</g>
</svg>
