<svg width="45" height="47" viewBox="0 0 45 47" fill="none" xmlns="http://www.w3.org/2000/svg">
<g id="Group 5688">
<path id="Union" fill-rule="evenodd" clip-rule="evenodd" d="M39.54 34.9583C39.5209 34.775 39.3665 34.6357 39.1822 34.6357C38.998 34.6357 38.8435 34.775 38.8245 34.9583L38.5402 37.6968C38.4243 38.8138 37.5414 39.6967 36.4243 39.8127L33.6858 40.097C33.5025 40.116 33.3633 40.2705 33.3633 40.4547C33.3633 40.639 33.5025 40.7934 33.6858 40.8124L36.4243 41.0967C37.5414 41.2127 38.4243 42.0956 38.5402 43.2126L38.8245 45.9512C38.8435 46.1344 38.998 46.2737 39.1822 46.2737C39.3665 46.2737 39.5209 46.1344 39.54 45.9512L39.8243 43.2126C39.9402 42.0956 40.8231 41.2127 41.9402 41.0967L44.6787 40.8124C44.862 40.7934 45.0012 40.639 45.0012 40.4547C45.0012 40.2705 44.862 40.116 44.6787 40.097L41.9402 39.8127C40.8231 39.6967 39.9402 38.8138 39.8243 37.6968L39.54 34.9583Z" fill="#A36FFE"/>
<g id="Group 5598">
<path id="Union_2" fill-rule="evenodd" clip-rule="evenodd" d="M12.3534 1.14284C12.3153 0.776304 12.0064 0.49781 11.6379 0.49781C11.2694 0.49781 10.9605 0.776304 10.9225 1.14284L10.3539 6.61993C10.122 8.85399 8.35618 10.6198 6.12212 10.8517L0.645026 11.4203C0.278494 11.4583 0 11.7672 0 12.1357C0 12.5042 0.278494 12.8131 0.645026 12.8512L6.12212 13.4198C8.35618 13.6517 10.122 15.4175 10.3539 17.6516L10.9225 23.1286C10.9605 23.4952 11.2694 23.7737 11.6379 23.7737C12.0064 23.7737 12.3153 23.4952 12.3534 23.1286L12.9219 17.6516C13.1539 15.4175 14.9197 13.6517 17.1537 13.4198L22.6308 12.8512C22.9974 12.8131 23.2759 12.5042 23.2759 12.1357C23.2759 11.7672 22.9974 11.4583 22.6308 11.4203L17.1537 10.8517C14.9197 10.6198 13.1539 8.85399 12.9219 6.61993L12.3534 1.14284Z" fill="#C8D316"/>
</g>
</g>
</svg>
