<svg width="61" height="63" viewBox="0 0 61 63" fill="none" xmlns="http://www.w3.org/2000/svg">
<g id="Group 5604">
<path id="Union" fill-rule="evenodd" clip-rule="evenodd" d="M30.6246 1.23143C30.5816 0.816632 30.232 0.501465 29.815 0.501465C29.398 0.501465 29.0484 0.816632 29.0053 1.23143L28.3619 7.42976C28.0994 9.95802 26.1011 11.9564 23.5728 12.2188L17.3745 12.8623C16.9597 12.9053 16.6445 13.2549 16.6445 13.6719C16.6445 14.0889 16.9597 14.4385 17.3745 14.4816L23.5728 15.125C26.1011 15.3875 28.0994 17.3858 28.3619 19.9141L29.0053 26.1124C29.0484 26.5272 29.398 26.8424 29.815 26.8424C30.232 26.8424 30.5816 26.5272 30.6246 26.1124L31.2681 19.9141C31.5305 17.3858 33.5289 15.3875 36.0571 15.125L42.2555 14.4816C42.6703 14.4385 42.9854 14.0889 42.9854 13.6719C42.9854 13.2549 42.6703 12.9053 42.2555 12.8623L36.0571 12.2188C33.5289 11.9564 31.5305 9.95802 31.2681 7.42977L30.6246 1.23143Z" fill="#4BE1F4"/>
<path id="Union_2" fill-rule="evenodd" clip-rule="evenodd" d="M54.8182 49.5134C54.7967 49.306 54.6219 49.1484 54.4134 49.1484C54.2048 49.1484 54.0301 49.306 54.0085 49.5134L53.6868 52.6126C53.5556 53.8767 52.5564 54.8759 51.2923 55.0071L48.1931 55.3288C47.9857 55.3504 47.8281 55.5252 47.8281 55.7337C47.8281 55.9422 47.9857 56.117 48.1931 56.1385L51.2923 56.4602C52.5564 56.5914 53.5556 57.5906 53.6868 58.8547L54.0085 61.9539C54.0301 62.1613 54.2048 62.3189 54.4134 62.3189C54.6219 62.3189 54.7967 62.1613 54.8182 61.9539L55.1399 58.8547C55.2711 57.5906 56.2703 56.5914 57.5344 56.4602L60.6336 56.1385C60.841 56.117 60.9986 55.9422 60.9986 55.7337C60.9986 55.5252 60.841 55.3504 60.6336 55.3288L57.5344 55.0071C56.2703 54.8759 55.2711 53.8767 55.1399 52.6126L54.8182 49.5134Z" fill="#F87388"/>
<path id="Union_3" fill-rule="evenodd" clip-rule="evenodd" d="M6.99006 38.4226C6.96853 38.2152 6.79374 38.0576 6.58523 38.0576C6.37671 38.0576 6.20193 38.2152 6.1804 38.4226L5.85868 41.5218C5.72745 42.7859 4.72828 43.7851 3.46415 43.9163L0.364983 44.238C0.157584 44.2595 0 44.4343 0 44.6428C0 44.8514 0.157584 45.0261 0.364983 45.0477L3.46415 45.3694C4.72828 45.5006 5.72745 46.4998 5.85868 47.7639L6.1804 50.8631C6.20193 51.0705 6.37671 51.2281 6.58523 51.2281C6.79374 51.2281 6.96853 51.0705 6.99006 50.8631L7.31178 47.7639C7.443 46.4998 8.44218 45.5006 9.7063 45.3694L12.8055 45.0477C13.0129 45.0261 13.1705 44.8514 13.1705 44.6428C13.1705 44.4343 13.0129 44.2595 12.8055 44.238L9.70631 43.9163C8.44218 43.7851 7.443 42.7859 7.31178 41.5218L6.99006 38.4226Z" fill="#C8D316"/>
</g>
</svg>
