<svg width="36" height="37" viewBox="0 0 36 37" fill="none" xmlns="http://www.w3.org/2000/svg">
<path d="M0 18.4676C0 8.53188 8.04921 0.482666 17.985 0.482666C27.9207 0.482666 35.9699 8.53188 35.9699 18.4676C35.9699 28.4034 27.9207 36.4526 17.985 36.4526C8.04921 36.4316 0 28.3824 0 18.4676Z" fill="url(#paint0_linear_167_3608)"/>
<path d="M26.3635 17.1901C26.2832 16.9751 26.0775 16.8321 25.8476 16.8321H19.2067L23.0373 9.38427C23.1577 9.14998 23.0956 8.86344 22.8882 8.70064C22.7881 8.62145 22.6677 8.5824 22.5478 8.5824C22.4196 8.5824 22.2915 8.6275 22.1886 8.71604L18.148 12.2057L10.0892 19.1656C9.9154 19.3158 9.8527 19.5583 9.933 19.7734C10.0133 19.9884 10.2184 20.132 10.4483 20.132H17.0893L13.2587 27.5798C13.1383 27.8141 13.2004 28.1006 13.4077 28.2634C13.5078 28.3426 13.6283 28.3817 13.7482 28.3817C13.8763 28.3817 14.0045 28.3366 14.1073 28.248L18.148 24.7584L26.2068 17.7984C26.3811 17.6483 26.4433 17.4057 26.3635 17.1901Z" fill="#10151A"/>
<defs>
<linearGradient id="paint0_linear_167_3608" x1="17.985" y1="0.482666" x2="17.985" y2="36.4526" gradientUnits="userSpaceOnUse">
<stop stop-color="#FFCC4A"/>
<stop offset="1" stop-color="#FFAC32"/>
</linearGradient>
</defs>
</svg>
