<svg width="41" height="33" viewBox="0 0 41 33" fill="none" xmlns="http://www.w3.org/2000/svg">
<g id="Group 5686">
<path id="Union" fill-rule="evenodd" clip-rule="evenodd" d="M5.38974 22.5929C5.37313 22.433 5.23836 22.3115 5.07759 22.3115C4.91681 22.3115 4.78204 22.433 4.76544 22.5929L4.51738 24.9826C4.41619 25.9573 3.64577 26.7277 2.67106 26.8289L0.281423 27.077C0.121506 27.0936 0 27.2283 0 27.3891C0 27.5499 0.121506 27.6847 0.281423 27.7013L2.67106 27.9493C3.64577 28.0505 4.41619 28.8209 4.51738 29.7956L4.76544 32.1853C4.78204 32.3452 4.91681 32.4667 5.07759 32.4667C5.23836 32.4667 5.37313 32.3452 5.38974 32.1853L5.6378 29.7956C5.73898 28.8209 6.5094 28.0505 7.48412 27.9493L9.87375 27.7013C10.0337 27.6847 10.1552 27.5499 10.1552 27.3891C10.1552 27.2283 10.0337 27.0936 9.87375 27.077L7.48412 26.8289C6.5094 26.7277 5.73898 25.9573 5.6378 24.9826L5.38974 22.5929Z" fill="#FFC803"/>
<g id="Group 5602">
<path id="Star 6" d="M30.4422 0.704346L29.9478 5.46722C29.7121 7.73756 27.9176 9.53205 25.6473 9.76773L20.8844 10.2622L25.6473 10.7566C27.9176 10.9923 29.7121 12.7868 29.9478 15.0571L30.4422 19.82L30.9366 15.0571C31.1723 12.7868 32.9668 10.9923 35.2371 10.7566L40 10.2622L35.2371 9.76773C32.9668 9.53205 31.1723 7.73756 30.9366 5.46723L30.4422 0.704346Z" fill="#77E6FF" stroke="#77E6FF" stroke-width="1.26959" stroke-linejoin="round"/>
</g>
</g>
</svg>
