<svg width="35" height="28" viewBox="0 0 35 28" fill="none" xmlns="http://www.w3.org/2000/svg">
<g id="Group 5601">
<path id="Union" fill-rule="evenodd" clip-rule="evenodd" d="M9.79453 0.511417C9.76436 0.220807 9.51944 0 9.22727 0C8.9351 0 8.69019 0.220807 8.66002 0.511417L8.20923 4.85399C8.02535 6.6253 6.6253 8.02535 4.85399 8.20923L0.511417 8.66002C0.220807 8.69019 0 8.9351 0 9.22727C0 9.51944 0.220807 9.76436 0.511417 9.79453L4.85399 10.2453C6.6253 10.4292 8.02535 11.8292 8.20923 13.6006L8.66002 17.9431C8.69019 18.2337 8.9351 18.4545 9.22727 18.4545C9.51944 18.4545 9.76436 18.2337 9.79453 17.9431L10.2453 13.6006C10.4292 11.8292 11.8292 10.4292 13.6006 10.2453L17.9431 9.79453C18.2337 9.76436 18.4545 9.51944 18.4545 9.22727C18.4545 8.9351 18.2337 8.69019 17.9431 8.66002L13.6006 8.20923C11.8292 8.02535 10.4292 6.6253 10.2453 4.85399L9.79453 0.511417Z" fill="#C8D316"/>
<path id="Union_2" fill-rule="evenodd" clip-rule="evenodd" d="M30.5193 18.0826C30.5037 17.9323 30.377 17.8181 30.2259 17.8181C30.0747 17.8181 29.948 17.9323 29.9324 18.0826L29.6993 20.3288C29.6042 21.245 28.88 21.9692 27.9638 22.0643L25.7177 22.2974C25.5673 22.313 25.4531 22.4397 25.4531 22.5908C25.4531 22.742 25.5673 22.8686 25.7177 22.8842L27.9638 23.1174C28.88 23.2125 29.6042 23.9367 29.6993 24.8529L29.9324 27.099C29.948 27.2494 30.0747 27.3636 30.2259 27.3636C30.377 27.3636 30.5037 27.2494 30.5193 27.099L30.7524 24.8529C30.8475 23.9367 31.5717 23.2125 32.4879 23.1174L34.7341 22.8842C34.8844 22.8686 34.9986 22.742 34.9986 22.5908C34.9986 22.4397 34.8844 22.313 34.7341 22.2974L32.4879 22.0643C31.5717 21.9692 30.8475 21.245 30.7524 20.3288L30.5193 18.0826Z" fill="#A36FFE"/>
</g>
</svg>
